<svg xmlns="http://www.w3.org/2000/svg" version="1.1" xmlns:xlink="http://www.w3.org/1999/xlink" xmlns:svgjs="http://svgjs.dev/svgjs" width="2000" height="1247" viewBox="0 0 2000 1247"><g transform="matrix(1,0,0,1,-1.2121212121212466,0.504858299595071)"><svg viewBox="0 0 396 247" data-background-color="#ffffff" preserveAspectRatio="xMidYMid meet" height="1247" width="2000" xmlns="http://www.w3.org/2000/svg" xmlns:xlink="http://www.w3.org/1999/xlink"><g id="tight-bounds" transform="matrix(1,0,0,1,0.2400000000000091,-0.09999999999999432)"><svg viewBox="0 0 395.52 247.2" height="247.2" width="395.52"><g><svg></svg></g><g><svg viewBox="0 0 395.52 247.2" height="247.2" width="395.52"><g><path xmlns="http://www.w3.org/2000/svg" d="M55.039 247.2l26.403-45.732h7.584l-22.403 38.804h262.274l-22.403-38.804 7.584 0 26.403 45.732zM197.76 0l26.403 45.732-7.583 0-18.82-32.596-18.82 32.596-7.583 0z" fill="#eb9486" fill-rule="nonzero" stroke="none" stroke-width="1" stroke-linecap="butt" stroke-linejoin="miter" stroke-miterlimit="10" stroke-dasharray="" stroke-dashoffset="0" font-family="none" font-weight="none" font-size="none" text-anchor="none" style="mix-blend-mode: normal" data-fill-palette-color="tertiary"></path></g><g transform="matrix(1,0,0,1,48.22967359050449,67.97999999999999)"><svg viewBox="0 0 299.060652818991 111.24" height="111.24" width="299.060652818991"><g><svg viewBox="0 0 299.060652818991 111.24" height="111.24" width="299.060652818991"><g><svg viewBox="0 0 299.060652818991 111.24" height="111.24" width="299.060652818991"><g><svg viewBox="0 0 299.060652818991 111.24" height="111.24" width="299.060652818991"><g id="textblocktransform"><svg viewBox="0 0 299.060652818991 111.24" height="111.24" width="299.060652818991" id="textblock"><g><svg viewBox="0 0 299.060652818991 111.24" height="111.24" width="299.060652818991"><g transform="matrix(1,0,0,1,0,0)"><svg width="299.060652818991" viewBox="3.5999999046325684 -33.099998474121094 90.5999984741211 33.69999694824219" height="111.24" data-palette-color="#eb9486"><path d="M12.2 0L3.6 0 3.6-32.5 15.9-32.5Q18.5-32.5 20.88-32 23.25-31.5 25.03-30.3 26.8-29.1 27.85-27.08 28.9-25.05 28.9-22L28.9-22Q28.9-18.5 27.48-16.2 26.05-13.9 23.65-12.6L23.65-12.6 30.7 0 21.1 0 15.5-10.9 12.2-10.9 12.2 0ZM12.2-25.7L12.2-17.7 15.3-17.7Q20.5-17.7 20.5-22L20.5-22Q20.5-24.1 19.18-24.9 17.85-25.7 15.3-25.7L15.3-25.7 12.2-25.7ZM44.7 0.6L44.7 0.6Q41.6 0.6 38.32-0.53 35.05-1.65 32.4-4.05L32.4-4.05 37.3-9.95Q39.05-8.55 41.07-7.68 43.1-6.8 44.9-6.8L44.9-6.8Q46.85-6.8 47.72-7.4 48.6-8 48.6-9.1L48.6-9.1Q48.6-9.7 48.3-10.1 48-10.5 47.42-10.85 46.85-11.2 46.05-11.53 45.25-11.85 44.2-12.25L44.2-12.25 40.15-13.95Q38.85-14.45 37.65-15.28 36.45-16.1 35.55-17.23 34.65-18.35 34.12-19.8 33.6-21.25 33.6-23L33.6-23Q33.6-25.1 34.5-26.93 35.4-28.75 37-30.13 38.6-31.5 40.82-32.3 43.05-33.1 45.7-33.1L45.7-33.1Q48.5-33.1 51.37-32.05 54.25-31 56.5-28.75L56.5-28.75 52.2-23.35Q50.55-24.5 49.02-25.1 47.5-25.7 45.7-25.7L45.7-25.7Q44.1-25.7 43.2-25.15 42.3-24.6 42.3-23.5L42.3-23.5Q42.3-22.35 43.57-21.73 44.85-21.1 47.1-20.25L47.1-20.25 51.05-18.7Q54.1-17.5 55.75-15.35 57.4-13.2 57.4-9.8L57.4-9.8Q57.4-7.75 56.55-5.85 55.7-3.95 54.07-2.53 52.45-1.1 50.1-0.25 47.75 0.6 44.7 0.6ZM70.3 0L62.6 0 62.6-32.5 71.8-32.5 76.7-19.2Q77.15-17.85 77.55-16.4 77.95-14.95 78.4-13.5L78.4-13.5 78.59-13.5Q79.05-14.95 79.45-16.4 79.84-17.85 80.3-19.2L80.3-19.2 85-32.5 94.2-32.5 94.2 0 86.4 0 86.4-9.6Q86.4-10.85 86.52-12.35 86.65-13.85 86.8-15.43 86.95-17 87.15-18.5 87.34-20 87.5-21.2L87.5-21.2 87.3-21.2 84.59-13.4 80.59-2.65 76-2.65 72-13.4 69.4-21.2 69.2-21.2Q69.34-20 69.55-18.5 69.75-17 69.9-15.43 70.05-13.85 70.17-12.35 70.3-10.85 70.3-9.6L70.3-9.6 70.3 0Z" opacity="1" transform="matrix(1,0,0,1,0,0)" fill="#eb9486" class="undefined-text-0" data-fill-palette-color="primary" id="text-0"></path></svg></g></svg></g></svg></g></svg></g></svg></g></svg></g></svg></g></svg></g><defs></defs></svg><rect width="395.52" height="247.2" fill="none" stroke="none" visibility="hidden"></rect></g></svg></g></svg>